<svg viewBox="0 0 32 32" xmlns="http://www.w3.org/2000/svg" width="32" height="32">
  <rect width="32" height="32" rx="7" fill="#0D2137"/>
  <path d="M13.97 24.96L8.37 24.96L8.37 7.80L13.97 7.80Q16.75 7.80 18.80 8.90Q20.86 10.01 21.98 11.94Q23.11 13.88 23.11 16.37Q23.11 18.85 21.98 20.80Q20.86 22.75 18.80 23.85Q16.75 24.96 13.97 24.96M11.94 10.91L11.94 21.85L14.06 21.85Q15.74 21.85 16.96 21.17Q18.18 20.49 18.86 19.26Q19.54 18.02 19.54 16.37Q19.54 14.68 18.86 13.46Q18.18 12.24 16.96 11.57Q15.74 10.91 14.06 10.91" fill="white"/>
  <circle cx="26" cy="25" r="3" fill="#00D4A0"/>
</svg>